# xmcd CD database file
#
# Track frame offsets:
#	150
#	20877
#	41167
#
# Disc length: 945 seconds
#
# Revision: 0
# Processed by: cddbd v1.5PL3 Copyright (c) Steve Scherf et al.
# Submitted via: CDex 1.50beta8
#
DISCID=2403af03
DTITLE=宇崎竜童 - 清水みなと祭り　かっぽれシリーズ　KAPPORE COLLECTION
DYEAR=1997
DGENRE=Dance
TTITLE0=港かっぽれ
TTITLE1=活惚レゲエ
TTITLE2=かっぽれ侫武夛
EXTD=YEAR: 1997
EXTT0=
EXTT1=
EXTT2=
PLAYORDER=
